<svg width="221" height="72" viewBox="0 0 221 72" fill="none" xmlns="http://www.w3.org/2000/svg">
<circle cx="81.4533" cy="36.2019" r="17.5352" stroke="black" stroke-width="5.65652"/>
<path d="M67.8779 49.7773L55.4336 62.2217" stroke="black" stroke-width="7.91913" stroke-linecap="round"/>
<path d="M81.4531 26.0223C81.4531 26.0223 84.645 25.8606 87.6753 28.2849C90.7056 30.7092 91.6349 33.9414 91.6349 33.9414" stroke="black" stroke-width="3.39391"/>
<path d="M45.9762 50.0902C45.1074 50.6694 43.9248 51.3211 42.4284 52.0451C40.9321 52.7691 39.1703 53.3725 37.143 53.8552C35.164 54.3379 32.9918 54.5792 30.6267 54.5792C26.5721 54.531 22.9036 53.8069 19.6213 52.4071C16.3873 51.0073 13.636 49.1007 11.3673 46.6872C9.0987 44.2738 7.33688 41.4983 6.08189 38.3609C4.87517 35.1751 4.2718 31.7963 4.2718 28.2244C4.2718 24.3146 4.8993 20.7185 6.15429 17.4363C7.45756 14.1057 9.26764 11.2337 11.5846 8.82024C13.9015 6.35852 16.6287 4.45189 19.7661 3.10036C22.9519 1.74883 26.4273 1.07307 30.1922 1.07307C33.3297 1.07307 36.1776 1.50749 38.7359 2.37632C41.2941 3.1969 43.4903 4.18641 45.3246 5.34487L42.5008 11.8612C41.0528 10.8958 39.2909 9.97869 37.2154 9.10985C35.1881 8.24101 32.9194 7.80659 30.4095 7.80659C27.8512 7.80659 25.4378 8.31341 23.1691 9.32706C20.9005 10.3407 18.8973 11.7646 17.1596 13.5989C15.4219 15.4331 14.0463 17.5811 13.0326 20.0428C12.0672 22.4562 11.5846 25.0627 11.5846 27.8623C11.5846 30.7102 12.019 33.365 12.8878 35.8267C13.8049 38.2402 15.0841 40.3399 16.7252 42.1258C18.4146 43.9118 20.4419 45.3116 22.8071 46.3252C25.1723 47.3389 27.8271 47.8457 30.7715 47.8457C33.4263 47.8457 35.7914 47.4354 37.867 46.6148C39.9426 45.7943 41.6561 44.8772 43.0077 43.8635L45.9762 50.0902Z" fill="black"/>
<path d="M111.61 54V1.65229H125.874C131.038 1.65229 135.431 2.44873 139.051 4.0416C142.719 5.63448 145.664 7.73418 147.884 10.3407C150.105 12.9472 151.722 15.8434 152.735 19.0291C153.797 22.1666 154.328 25.3041 154.328 28.4416C154.328 32.3996 153.628 35.9474 152.228 39.0849C150.877 42.2224 148.994 44.9013 146.581 47.1217C144.167 49.342 141.392 51.0556 138.255 52.2623C135.165 53.4208 131.883 54 128.408 54H111.61ZM118.633 47.2665H127.032C129.928 47.2665 132.583 46.8321 134.996 45.9632C137.458 45.0944 139.582 43.8394 141.368 42.1982C143.202 40.5571 144.626 38.5539 145.64 36.1887C146.653 33.7753 147.16 31.0481 147.16 28.0072C147.16 24.7731 146.629 21.9494 145.567 19.5359C144.505 17.0742 143.057 15.0228 141.223 13.3817C139.389 11.7405 137.313 10.5096 134.996 9.68908C132.679 8.82023 130.242 8.38581 127.684 8.38581H118.633V47.2665Z" fill="black"/>
<path d="M177.977 54.5068C175.177 54.5068 172.667 53.8793 170.447 52.6243C168.274 51.3211 166.537 49.5834 165.234 47.4113C163.979 45.1909 163.351 42.7292 163.351 40.0261C163.351 37.3231 164.003 34.8613 165.306 32.641C166.609 30.4206 168.371 28.6588 170.591 27.3555C172.812 26.0523 175.273 25.4006 177.977 25.4006C181.211 25.4006 183.914 26.3419 186.086 28.2244C188.306 30.0586 189.923 32.4238 190.937 35.3199L166.175 45.1668L165.451 43.3567L188.837 34.089L188.258 34.9579C187.341 32.9306 185.989 31.1688 184.203 29.6724C182.466 28.1761 180.342 27.4279 177.832 27.4279C175.563 27.4279 173.512 27.983 171.677 29.0932C169.843 30.2034 168.371 31.7239 167.261 33.6546C166.199 35.5371 165.668 37.6368 165.668 39.9537C165.668 42.1258 166.175 44.1773 167.188 46.108C168.25 47.9905 169.698 49.511 171.533 50.6694C173.367 51.8279 175.515 52.4071 177.977 52.4071C179.618 52.4071 181.162 52.1175 182.61 51.5383C184.107 50.9108 185.41 50.1143 186.52 49.149L187.896 50.8142C186.544 51.9244 185 52.8174 183.262 53.4932C181.573 54.1689 179.811 54.5068 177.977 54.5068ZM206.761 54.5792C205.265 54.5792 203.672 54.3137 201.983 53.7828C200.293 53.2036 198.894 52.2623 197.783 50.9591L199.014 49.3662C199.835 50.3316 200.921 51.128 202.272 51.7555C203.624 52.3347 205.072 52.6243 206.617 52.6243C207.775 52.6243 208.861 52.4554 209.875 52.1175C210.937 51.7314 211.806 51.128 212.481 50.3074C213.157 49.4386 213.495 48.2801 213.495 46.8321C213.495 45.4323 213.109 44.3462 212.337 43.5739C211.612 42.7533 210.647 42.1258 209.44 41.6914C208.282 41.2087 207.075 40.7502 205.82 40.3157C203.889 39.6882 202.248 38.8435 200.897 37.7816C199.594 36.7197 198.942 35.1268 198.942 33.003C198.942 31.4584 199.304 30.1551 200.028 29.0932C200.752 27.983 201.717 27.1383 202.924 26.5591C204.131 25.9799 205.458 25.6902 206.906 25.6902C208.21 25.6902 209.585 25.9316 211.033 26.4143C212.481 26.897 213.76 27.7175 214.871 28.876L213.712 30.4689C212.94 29.4552 211.902 28.7553 210.599 28.3692C209.296 27.9348 208.161 27.6934 207.196 27.6451C206.375 27.6451 205.506 27.8382 204.589 28.2244C203.672 28.5622 202.876 29.1173 202.2 29.8896C201.573 30.6137 201.259 31.5549 201.259 32.7134C201.259 33.8718 201.548 34.8131 202.128 35.5371C202.755 36.2611 203.552 36.8404 204.517 37.2748C205.482 37.7092 206.496 38.1195 207.558 38.5057C208.909 38.9883 210.213 39.5193 211.468 40.0985C212.771 40.6295 213.833 41.3777 214.653 42.343C215.474 43.3084 215.884 44.6117 215.884 46.2528C215.884 47.894 215.522 49.342 214.798 50.597C214.122 51.852 213.109 52.8415 211.757 53.5656C210.454 54.2413 208.789 54.5792 206.761 54.5792Z" fill="black"/>
</svg>
